<svg xmlns="http://www.w3.org/2000/svg" id="logo_media" width="280" height="44.399" viewBox="0 0 280 44.399"><defs><style>.cls-1{fill:#64dd17}.cls-2{fill:#231815}</style></defs><g id="グループ_2667"><circle id="楕円形_59" cx="3.118" cy="3.118" r="3.118" class="cls-1" transform="translate(89.562 36.636)"/><path id="パス_2419" d="M238.434 145.039h-5.113V124.9a6.66 6.66 0 00-1.921-4.922 6.178 6.178 0 00-4.6-1.937 6.738 6.738 0 00-4.842 2.058 6.268 6.268 0 00-2.11 4.677v20.266h-5.113v-20.269a6.569 6.569 0 00-1.935-4.75 6.119 6.119 0 00-4.613-1.985 6.466 6.466 0 00-4.76 2.038 6.4 6.4 0 00-2.038 4.7v20.266h-5.109V113.86h5.113v1.758a14.917 14.917 0 011.393-.875 11.966 11.966 0 015.872-1.569 9.877 9.877 0 016.023 2.154 12.079 12.079 0 012.557 2.623 10.732 10.732 0 012.764-2.7 12.759 12.759 0 017.333-2.079 10.907 10.907 0 017.749 3.176 11.327 11.327 0 013.35 8.548z" class="cls-1" transform="translate(-89.29 -102.167)"/><path id="パス_2420" d="M321.959 143.391a16.276 16.276 0 110-32.551 16.371 16.371 0 018.227 2.264 15.632 15.632 0 012.936 2.158V99.054h5.113V142.7h-5.113v-3.818a16.928 16.928 0 01-11.162 4.5zM321.9 115.7a10.559 10.559 0 00-7.9 3.4 11.387 11.387 0 00-.031 16.062 10.542 10.542 0 007.895 3.365 11.539 11.539 0 0011.38-11.349 11.01 11.01 0 00-3.388-8.043 10.713 10.713 0 00-7.956-3.435z" class="cls-2" transform="translate(-113.388 -99.054)"/><g id="グループ_2667-2" transform="translate(232.188)"><circle id="楕円形_60" cx="3.508" cy="3.508" r="3.508" class="cls-2"/><path id="長方形_5084" d="M0 0h5.114v31.117H0z" class="cls-2" transform="translate(.951 12.534)"/></g><path id="パス_2421" d="M390.716 146.725a15.9 15.9 0 01-11.574-4.788 16.087 16.087 0 010-22.978 15.907 15.907 0 0111.574-4.786 16.6 16.6 0 018.422 2.331 14.9 14.9 0 012.741 2.027v-3.671h5.113v31.179h-5.113v-3.777a15.325 15.325 0 01-2.887 2.189 16.107 16.107 0 01-8.276 2.274zm.063-27.687a10.715 10.715 0 00-7.962 3.431 11.014 11.014 0 00-3.388 8.043 11.539 11.539 0 0011.38 11.349 10.541 10.541 0 007.891-3.361 11.387 11.387 0 00-.03-16.063 10.564 10.564 0 00-7.891-3.399z" class="cls-2" transform="translate(-128.551 -102.388)"/><path id="パス_2422" d="M284.747 138.576a10.542 10.542 0 01-7.894 3.365 10.665 10.665 0 01-6.025-1.764l.1-.1 15.525-15.328 3.678-3.632a16.447 16.447 0 00-3.5-3.579 15.767 15.767 0 00-9.839-3.286 15.944 15.944 0 00-11.606 4.787 15.539 15.539 0 00-4.826 11.364 15.812 15.812 0 003.321 9.793 18.893 18.893 0 001.418 1.673 17.644 17.644 0 002.128 1.865 15.126 15.126 0 009.284 3.07h.561a15.28 15.28 0 0011.415-4.908 18.344 18.344 0 001.364-1.617l-3.568-3.614a12.462 12.462 0 01-1.536 1.911zm-19.275-7.984a11.014 11.014 0 013.388-8.043 10.716 10.716 0 017.962-3.431 10.368 10.368 0 016.226 1.958l-7.862 7.761-7.912 7.812a10.6 10.6 0 01-1.802-6.057z" class="cls-2" transform="translate(-103.421 -102.406)"/><path id="パス_2423" d="M85.794 118.92a8.057 8.057 0 00-5.831 2.494 7.909 7.909 0 00-2.526 5.8v18.708h-2V117.86h2v4.178a8.812 8.812 0 013.492-3.492 10.389 10.389 0 015.3-1.372 9.265 9.265 0 015.611 2v2.494a8.4 8.4 0 00-6.046-2.748z" class="cls-2" transform="translate(-62.643 -103.05)"/><path id="パス_2424" d="M158.745 141.55v1.75a10.554 10.554 0 01-7.545-2.962 9.987 9.987 0 01-3.118-7.577v-29.187h2v11.349h8.605v1.746h-8.605v16.088a8.574 8.574 0 008.668 8.793z" class="cls-2" transform="translate(-78.662 -100.051)"/><g id="グループ_2668" transform="translate(0 6.719)"><path id="長方形_5085" d="M0 0h1.996v27.999H0z" class="cls-2" transform="translate(.951 8.154)"/><circle id="楕円形_61" cx="1.949" cy="1.949" r="1.949" class="cls-2"/></g><path id="パス_2425" d="M128.306 140.371a14.674 14.674 0 01-3.515 2.855 13.132 13.132 0 01-6.7 1.715q-3.742 0-7.795-3.243l19.58-19.332a14.374 14.374 0 00-11.037-5.113 14.714 14.714 0 00-10.789 4.333 13.979 13.979 0 00-4.364 10.259 14.333 14.333 0 004.4 10.383 14.032 14.032 0 0010.32 4.459h.56a13.981 13.981 0 0010.726-4.864v-.055zm-22.628-8.712A13.123 13.123 0 01118.3 119a13.061 13.061 0 018.824 3.367l-18.146 18.022a12.77 12.77 0 01-3.301-8.73z" class="cls-2" transform="translate(-68.871 -103.067)"/></g></svg>